# xmcd
#
# Track frame offsets:
#  150
#  25840
#  40972
#  61670
#  79270
#  103377
#  130485
#  166205
#  183355
#  196182
#
# Disc length: 2802 seconds
#
# Revision: 0
# Processed by: cddbd v1.5.1PL2 Copyright (c) Steve Scherf et al.
# Submitted via: Collectorz.com_Music_Collector 6.11
#
DISCID=820af00a
DTITLE=Calexico - Bremen, August 30, 2000 [CD1)
DYEAR=1900
DGENRE=
TTITLE0=Glowing Heart Of The World
TTITLE1=The Ride, Part II
TTITLE2=Service and Repair
TTITLE3=Tulsa Telephone Book
TTITLE4=Gilbert
TTITLE5=Gypsy's Curse
TTITLE6=Fade
TTITLE7=Ballad Of Cable Hogue
TTITLE8=Cancion Del Mariachi
TTITLE9=El Picador
EXTD=
EXTT0=
EXTT1=
EXTT2=
EXTT3=
EXTT4=
EXTT5=
EXTT6=
EXTT7=
EXTT8=
EXTT9=
PLAYORDER=
